<?xml version="1.0" encoding="utf-8"?>
<!-- Generator: Adobe Illustrator 25.2.3, SVG Export Plug-In . SVG Version: 6.00 Build 0)  -->
<svg version="1.1" id="Layer_1" xmlns="http://www.w3.org/2000/svg" xmlns:xlink="http://www.w3.org/1999/xlink" x="0px" y="0px"
	 viewBox="0 0 512 512" style="enable-background:new 0 0 512 512;" xml:space="preserve">
<style type="text/css">
	.st0{fill:#D5006C;}
	.st1{fill:#1D1D1B;}
</style>
<g>
	<path class="st0" d="M153.38,379.34C78.18,379.34,17,318.16,17,242.96c0-75.2,61.18-136.39,136.38-136.39l0.61,0.01
		c31.49-0.01,67.78,8.37,98.26,32.29l-37.07,52.33c-20.88-17.68-46.83-20.7-62.25-20.98c-39.9-0.74-72.29,32.77-72.29,72.74
		c0,40.1,32.63,72.73,72.74,72.73c40.1,0,72.73-32.63,72.73-72.73h63.65C289.76,318.16,228.58,379.34,153.38,379.34z"/>
	<path class="st0" d="M226.45,245.86v133.49h62.05V250.99C288.5,250.99,260.24,241.99,226.45,245.86z"/>
</g>
<path class="st1" d="M362.12,379.34c-75.2,0-136.38-61.18-136.38-136.38c0-75.2,61.18-136.38,136.38-136.38l0.62,0
	c4.83,0.09,48.12,1.6,78.6,25.52l-39.29,50.07c-10.79-8.47-31.92-11.72-40.25-11.95c-39.96,0.18-72.41,32.73-72.41,72.73
	c0,40.1,32.63,72.74,72.74,72.74c40.1,0,72.73-32.63,72.73-72.74h63.65C498.5,318.16,437.32,379.34,362.12,379.34z"/>
<path class="st1" d="M498.63,215.99H371.51v62.05h121.98C493.49,278.04,502.5,249.78,498.63,215.99z"/>
</svg>
